<?xml version="1.0" encoding="UTF-8" standalone="no"?>
<svg
   xmlns:dc="http://purl.org/dc/elements/1.1/"
   xmlns:cc="http://creativecommons.org/ns#"
   xmlns:rdf="http://www.w3.org/1999/02/22-rdf-syntax-ns#"
   xmlns:svg="http://www.w3.org/2000/svg"
   xmlns="http://www.w3.org/2000/svg"
   xmlns:sodipodi="http://sodipodi.sourceforge.net/DTD/sodipodi-0.dtd"
   xmlns:inkscape="http://www.inkscape.org/namespaces/inkscape"
   version="1.1"
   x="0px"
   y="0px"
   viewBox="0 0 164.00004 104.57658"
   enable-background="new 0 0 100 100"
   xml:space="preserve"
   id="svg3498"
   inkscape:version="0.91 r13725"
   sodipodi:docname="bookshelf.svg"
   width="164.00005"
   height="104.57658"><metadata
     id="metadata3526"><rdf:RDF><cc:Work
         rdf:about=""><dc:format>image/svg+xml</dc:format><dc:type
           rdf:resource="http://purl.org/dc/dcmitype/StillImage" /><dc:title></dc:title></cc:Work></rdf:RDF></metadata><defs
     id="defs3524" /><sodipodi:namedview
     pagecolor="#ffffff"
     bordercolor="#666666"
     borderopacity="1"
     objecttolerance="10"
     gridtolerance="10"
     guidetolerance="10"
     inkscape:pageopacity="0"
     inkscape:pageshadow="2"
     inkscape:window-width="1366"
     inkscape:window-height="704"
     id="namedview3522"
     showgrid="false"
     inkscape:zoom="4.12"
     inkscape:cx="67.145631"
     inkscape:cy="55.205412"
     inkscape:window-x="0"
     inkscape:window-y="27"
     inkscape:window-maximized="1"
     inkscape:current-layer="svg3498"
     fit-margin-top="0"
     fit-margin-left="0"
     fit-margin-right="0"
     fit-margin-bottom="0" /><path
     d="m 62.454,9.4179479 c -0.026,-0.735 -0.647,-1.4420001 -1.385,-1.417 l -13.348,0.473 c -0.738,0.026 -1.307,0.858 -1.281,1.5970141 l 0.321,9.046002 16.017,-0.569 -0.324,-9.1300161 z"
     id="path3500"
     style="fill:#00ae68;fill-opacity:1"
     inkscape:connector-curvature="0" /><rect
     x="46.059273"
     y="26.096773"
     transform="matrix(0.99937679,-0.03529918,0.03529918,0.99937679,0,0)"
     width="16.026371"
     height="69.451607"
     id="rect3502"
     style="fill:#00ae68;fill-opacity:1" /><path
     d="m 49.745,103.50167 c 0.026,0.72999 0.636,1.09599 1.375,1.07399 l 13.348,-0.475 c 0.738,-0.026 1.317,-0.51699 1.292,-1.25199 l -0.149,-4.215706 -16.016,0.563 0.15,4.305706 z"
     id="path3504"
     style="fill:#00ae68;fill-opacity:1"
     inkscape:connector-curvature="0" /><path
     d="m 0,103.03167 c 0,0.735 0.597,1.33599 1.335,1.33599 l 13.355,0 c 0.738,0 1.336,-0.60099 1.336,-1.33599 l 0,-57.428706 -16.026,0 0,57.428706 z"
     id="path3506"
     style="fill:#2419b2;fill-opacity:1"
     inkscape:connector-curvature="0" /><path
     d="m 16.027,20.226964 c 0,-0.738 -0.598,-1.335 -1.336,-1.335 l -13.355,0 c -0.738,0 -1.336,0.598 -1.336,1.335 l 0,9.349 16.027,0 0,-9.349 z"
     id="path3508"
     style="fill:#2419b2;fill-opacity:1"
     inkscape:connector-curvature="0" /><path
     d="m 42.738,31.041964 c 0,-0.738 -0.597,-1.335 -1.335,-1.335 l -18.698,0 c -0.738,0 -1.335,0.597 -1.335,1.335 l 0,9.219 21.369,0 0,-9.219 z"
     id="path3510"
     style="fill:#bc008d;fill-opacity:1"
     inkscape:connector-curvature="0" /><path
     d="m 21.37,50.945964 0,52.085706 c 0,0.735 0.597,1.33599 1.335,1.33599 l 18.698,0 c 0.738,0 1.335,-0.60099 1.335,-1.33599 l 0,-52.085706 -21.368,0 z"
     id="path3512"
     style="fill:#bc008d;fill-opacity:1"
     inkscape:connector-curvature="0" /><path
     d="m 78.102,103.21467 c 0.104,0.735 0.777,1.24099 1.513,1.13799 l 13.22,-1.87899 c 0.73,-0.104 1.252,-0.67299 1.153,-1.40799 l -8.833,-62.249716 -15.87,2.254 8.817,62.144706 z"
     id="path3514"
     style="fill:#2419b2;fill-opacity:1"
     inkscape:connector-curvature="0" /><path
     d="m 83.09,24.267964 c -0.104,-0.73 -0.777,-1.237 -1.508,-1.132 l -13.225,1.875 c -0.73,0.102 -1.252,0.673 -1.148,1.403 l 1.325,9.362 15.87,-2.251 -1.314,-9.257 z"
     id="path3516"
     style="fill:#2419b2;fill-opacity:1"
     inkscape:connector-curvature="0" /><path
     d="m 112.422,9.1623843 c -0.026,-0.734999 -0.647,-1.442 -1.385,-1.416999 l -13.348,0.473 c -0.738,0.026 -1.307,0.857999 -1.281,1.597014 l 0.321,9.0460017 16.017,-0.569 -0.324,-9.1300167 z"
     id="path3500-5"
     style="fill:#bc008d;fill-opacity:1"
     inkscape:connector-curvature="0" /><rect
     x="96.00515"
     y="27.6052"
     transform="matrix(0.99937679,-0.03529918,0.03529918,0.99937679,0,0)"
     width="16.026371"
     height="69.451607"
     id="rect3502-5"
     style="fill:#bc008d;fill-opacity:1" /><path
     d="m 99.713,103.24611 c 0.026,0.72999 0.636,1.09599 1.375,1.07399 l 13.348,-0.475 c 0.738,-0.026 1.317,-0.51699 1.292,-1.25199 l -0.149,-4.215709 -16.016,0.563 0.15,4.305709 z"
     id="path3504-1"
     style="fill:#bc008d;fill-opacity:1"
     inkscape:connector-curvature="0" /><path
     d="m 139.08156,30.474432 c 0,-0.738 -0.597,-1.335 -1.335,-1.335 l -18.698,0 c -0.738,0 -1.335,0.597 -1.335,1.335 l 0,9.219 21.369,0 0,-9.219 z"
     id="path3510-8"
     style="fill:#00ae68;fill-opacity:1"
     inkscape:connector-curvature="0" /><path
     d="m 117.71356,50.378432 0,52.085708 c 0,0.735 0.597,1.33599 1.335,1.33599 l 18.698,0 c 0.738,0 1.335,-0.60099 1.335,-1.33599 l 0,-52.085708 -21.368,0 z"
     id="path3512-8"
     style="fill:#00ae68;fill-opacity:1"
     inkscape:connector-curvature="0" /><path
     d="m 162.86797,30.474431 c 0,-0.738 -0.597,-1.335 -1.335,-1.335 l -18.698,0 c -0.738,0 -1.335,0.597 -1.335,1.335 l 0,9.219 21.369,0 0,-9.219 z"
     id="path3510-8-3"
     style="fill:#bc008d;fill-opacity:1"
     inkscape:connector-curvature="0" /><path
     d="m 141.49997,50.378431 0,52.085709 c 0,0.735 0.597,1.33599 1.335,1.33599 l 18.698,0 c 0.738,0 1.335,-0.60099 1.335,-1.33599 l 0,-52.085709 -21.368,0 z"
     id="path3512-8-8"
     style="fill:#bc008d;fill-opacity:1"
     inkscape:connector-curvature="0" /></svg>