<?xml version="1.0" encoding="UTF-8" standalone="no"?>
<svg
   xmlns:dc="http://purl.org/dc/elements/1.1/"
   xmlns:cc="http://creativecommons.org/ns#"
   xmlns:rdf="http://www.w3.org/1999/02/22-rdf-syntax-ns#"
   xmlns:svg="http://www.w3.org/2000/svg"
   xmlns="http://www.w3.org/2000/svg"
   xmlns:sodipodi="http://sodipodi.sourceforge.net/DTD/sodipodi-0.dtd"
   xmlns:inkscape="http://www.inkscape.org/namespaces/inkscape"
   version="1.1"
   x="0px"
   y="0px"
   viewBox="0 0 86.099999 92.400001"
   enable-background="new 0 0 100 100"
   xml:space="preserve"
   id="svg4188"
   inkscape:version="0.91 r13725"
   sodipodi:docname="scream.svg"
   width="86.099998"
   height="92.400002"><metadata
     id="metadata4200"><rdf:RDF><cc:Work
         rdf:about=""><dc:format>image/svg+xml</dc:format><dc:type
           rdf:resource="http://purl.org/dc/dcmitype/StillImage" /><dc:title></dc:title></cc:Work></rdf:RDF></metadata><defs
     id="defs4198" /><sodipodi:namedview
     pagecolor="#ffffff"
     bordercolor="#666666"
     borderopacity="1"
     objecttolerance="10"
     gridtolerance="10"
     guidetolerance="10"
     inkscape:pageopacity="0"
     inkscape:pageshadow="2"
     inkscape:window-width="1366"
     inkscape:window-height="741"
     id="namedview4196"
     showgrid="false"
     fit-margin-top="1.3"
     fit-margin-left="1.2"
     fit-margin-right="1.2"
     fit-margin-bottom="1.3"
     inkscape:zoom="4.416"
     inkscape:cx="43.1"
     inkscape:cy="33.799998"
     inkscape:window-x="0"
     inkscape:window-y="27"
     inkscape:window-maximized="1"
     inkscape:current-layer="svg4188" /><path
     d="M 79.5,58.3 C 83.1,53.4 84.9,48.5 84.9,43.1 84.8,20.1 66.1,1.3 43,1.3 19.9,1.3 1.2,20.1 1.2,43.1 c 0,4.6 1.2,8.8 3.7,12.9 0.1,0.2 0.6,1 0.6,1.3 1.3,7.7 1.7,15.1 1,22.1 -0.4,4 0.1,6.6 1.6,8.4 1.9,2.2 5.2,2.9 9.8,3.2 0.7,0 1.4,0.1 2,0.1 6.5,0 6.5,-3.5 6.6,-11.8 0,-0.2 0,-0.5 0,-0.7 5.5,4.3 10.6,6.3 16.4,6.3 6.7,0 11.5,-2.9 15.3,-6 0,0.1 0,0.3 0,0.4 0.1,8.3 0.1,11.8 6.6,11.8 0.6,0 1.2,0 2,-0.1 4.6,-0.3 7.9,-1 9.8,-3.2 1.5,-1.8 2,-4.4 1.6,-8.4 C 77.6,73 77.8,66.2 78.9,59.2 79,59.1 79.4,58.5 79.5,58.3 Z M 24.4,79.4 C 24.3,88 24.2,89 20,89 19.5,89 18.9,89 18.2,88.9 14.2,88.6 11.3,88.1 9.9,86.5 8.8,85.2 8.5,83.1 8.8,79.7 9.5,72 9.1,63.8 7.5,55.4 c 0.1,-0.1 0.6,-0.5 1.9,-0.5 1.7,0 4.1,0.6 6.1,2.3 4.5,4 9.1,9.4 8.9,19.2 0,1.1 0,2 0,3 z m 33.8,-3.3 c -0.1,0 -0.1,0.1 -0.2,0.1 -3.9,3.4 -8.4,6.5 -15,6.5 -5.7,0 -10.7,-2.1 -16.3,-6.9 0,0 -0.1,0 -0.1,0 C 26.6,65.3 21.5,59.4 16.9,55.5 14.5,53.4 11.4,52.6 9.3,52.6 7.8,52.6 6.7,53 6,53.6 4.2,50.3 3.3,46.8 3.3,43.1 3.3,21.3 21.1,3.5 42.9,3.5 c 21.8,0 39.6,17.8 39.6,39.6 0,4 -1,7.6 -3.2,11.2 C 79.2,54.1 79.1,54 79,53.8 78.3,53 77,52.5 75.3,52.5 c -2.1,0 -5.1,0.8 -7.6,2.9 -4.3,4.1 -9.5,10.1 -9.5,20.7 z m 17.9,3.6 c 0.3,3.3 0,5.5 -1.1,6.8 -1.4,1.6 -4.3,2.2 -8.3,2.4 -0.7,0 -1.3,0.1 -1.8,0.1 l 0,0 c -4.2,0 -4.3,-0.9 -4.4,-9.6 0,-0.9 0,-1.9 0,-3 -0.2,-9.9 4.4,-15.3 8.9,-19.2 1.9,-1.7 4.4,-2.3 6.1,-2.3 1.3,0 1.9,0.4 1.9,0.5 -1.6,8.4 -2,16.6 -1.3,24.3 z M 51.4,61.8 c 0,7.3 -2.8,13.3 -8.6,13.3 -5.9,0 -8.6,-6 -8.6,-13.3 0,-7.3 1.7,-13.3 8.6,-13.3 6.9,0 8.6,6 8.6,13.3 z M 74,42 c 0,-3.1 -1.2,-6.6 -3.5,-9.7 -3.4,-4.8 -7.6,-7.5 -11.7,-7.5 -1.9,0 -3.7,0.6 -5.4,1.7 -2.4,1.6 -3.9,3.8 -4.4,6.4 -0.7,3.6 0.5,7.7 3.3,11.7 3.1,4.4 7.8,7.2 12.2,7.2 2,0 3.9,-0.6 5.5,-1.7 2.6,-1.9 4,-4.8 4,-8.1 z m -5.3,6.2 c -1.2,0.9 -2.6,1.3 -4.2,1.3 -3.7,0 -7.6,-2.4 -10.3,-6.2 -2.4,-3.4 -3.4,-7 -2.9,-10 0.4,-2.1 1.5,-3.8 3.4,-5 1.3,-0.9 2.7,-1.3 4.1,-1.3 3.3,0 7,2.4 9.9,6.6 2,2.8 3,5.8 3,8.4 0,2.6 -1,4.8 -3,6.2 z M 36.2,32.6 c -0.5,-2.6 -2,-4.9 -4.4,-6.4 -1.7,-1.1 -3.5,-1.7 -5.4,-1.7 -4.1,0 -8.4,2.8 -11.7,7.5 -2.2,3.2 -3.4,6.6 -3.5,9.7 0,3.4 1.4,6.2 4,8 1.6,1.1 3.5,1.7 5.5,1.7 0,0 0,0 0,0 4.4,0 9.1,-2.8 12.2,-7.2 2.8,-3.8 4,-8 3.3,-11.6 z M 31.1,43 c -2.7,3.8 -6.7,6.2 -10.3,6.2 l 0,0 c -1.6,0 -3,-0.4 -4.2,-1.3 -2,-1.4 -3,-3.5 -3,-6.2 0,-2.7 1.1,-5.7 3,-8.4 2.9,-4.2 6.5,-6.6 9.9,-6.6 1.4,0 2.8,0.4 4.1,1.3 1.9,1.2 3,2.9 3.4,5 0.6,3 -0.5,6.6 -2.9,10 z"
     id="path4190"
     style="fill:#cccccc"
     inkscape:connector-curvature="0" /></svg>